<?xml version="1.0" standalone="no"?><!DOCTYPE svg PUBLIC "-//W3C//DTD SVG 1.1//EN" "http://www.w3.org/Graphics/SVG/1.1/DTD/svg11.dtd"><svg t="1584324668010" class="icon" viewBox="0 0 1024 1024" version="1.1" xmlns="http://www.w3.org/2000/svg" p-id="1935" xmlns:xlink="http://www.w3.org/1999/xlink" width="200" height="200"><defs><style type="text/css"></style></defs><path d="M512 0a512 512 0 1 0 512 512 512.576 512.576 0 0 0-512-512z m0 896a384 384 0 1 1 384-384 384.448 384.448 0 0 1-384 384z" p-id="1936"></path><path d="M685.248 338.752a64 64 0 0 0-90.496 0L512 421.504 429.248 338.752a64 64 0 0 0-90.496 90.496L421.504 512 338.752 594.752a64 64 0 1 0 90.496 90.496L512 602.496l82.752 82.752a64 64 0 0 0 90.496-90.496L602.496 512l82.752-82.752a64 64 0 0 0 0-90.496z" p-id="1937"></path></svg>