<svg t="1588254755093" class="icon" viewBox="0 0 1024 1024" version="1.1" xmlns="http://www.w3.org/2000/svg" p-id="15686" width="200" height="200"><path d="M650.72 608.3l-69.92-69.93L554.43 512l16.18-16.19 73.16-73.15c11.84-11.85 24-23.47 35.56-35.56 0.16-0.17 0.33-0.34 0.5-0.5 11.11-11.12 11.94-31.47 0-42.43s-30.57-11.86-42.43 0l-29.1 29.11-69.93 69.92L512 469.57l-16.19-16.18-73.15-73.16c-11.85-11.84-23.47-24-35.56-35.56l-0.5-0.5c-11.12-11.11-31.47-11.94-42.43 0s-11.86 30.57 0 42.43l29.11 29.1 69.92 69.93L469.57 512l-16.18 16.19-73.16 73.15c-11.84 11.85-24 23.47-35.56 35.56-0.16 0.17-0.33 0.34-0.5 0.5-11.11 11.12-11.94 31.47 0 42.43s30.57 11.86 42.43 0l29.1-29.11 69.93-69.92L512 554.43l16.19 16.18 73.15 73.16c11.85 11.84 23.47 24 35.56 35.56 0.17 0.16 0.34 0.33 0.5 0.5 11.12 11.11 31.47 11.94 42.43 0s11.86-30.57 0-42.43z" p-id="15687"></path><path d="M898.87 512a431.7 431.7 0 0 1-3.69 55.67l1.08-8a420.12 420.12 0 0 1-29.08 106.62l3-7.18A421.35 421.35 0 0 1 841.41 715q-8.11 13.17-17.18 25.73-2.31 3.19-4.68 6.35a16.85 16.85 0 0 1-2.38 3.14c-0.08 0.07 5.05-6.46 2.29-3-3.53 4.47-7.1 8.9-10.78 13.24a419.73 419.73 0 0 1-43.23 43.91q-5.43 4.76-11 9.33-3 2.49-6.15 4.93l-2.07 1.62c8.22-6.53 2.74-2.13 0.87-0.72q-12.63 9.49-25.94 18a420.54 420.54 0 0 1-62 32.65l7.18-3a419.18 419.18 0 0 1-106.62 29.08l8-1.07a426.79 426.79 0 0 1-111.32 0l8 1.07a419.18 419.18 0 0 1-106.62-29.08l7.18 3A420 420 0 0 1 309 841.44q-13.18-8.12-25.73-17.18c-2.14-1.54-4.25-3.1-6.36-4.68a17.18 17.18 0 0 1-3.14-2.38c-0.06-0.08 6.47 5 3 2.29-4.46-3.53-8.89-7.1-13.23-10.78a419.73 419.73 0 0 1-43.91-43.23q-4.75-5.43-9.33-11-2.49-3.06-4.93-6.15c-0.54-0.69-1.07-1.39-1.61-2.07 6.52 8.21 2.12 2.74 0.71 0.86q-9.5-12.61-18-25.94a419.15 419.15 0 0 1-32.66-62l3 7.18a420.12 420.12 0 0 1-29.05-106.66l1.08 8a426 426 0 0 1 0-111.33l-1.08 8a420.19 420.19 0 0 1 29.08-106.63l-3 7.19A421.35 421.35 0 0 1 182.61 309q8.12-13.18 17.18-25.73 2.31-3.19 4.68-6.35a16.52 16.52 0 0 1 2.38-3.14c0.08-0.07-5 6.46-2.29 3 3.53-4.46 7.1-8.89 10.78-13.23a419.73 419.73 0 0 1 43.23-43.91q5.43-4.75 11-9.33c2-1.66 4.08-3.31 6.15-4.93 0.69-0.54 1.38-1.07 2.07-1.62-8.22 6.53-2.74 2.13-0.87 0.72q12.63-9.5 25.94-18a419.59 419.59 0 0 1 62-32.65l-7.18 3a419.18 419.18 0 0 1 106.62-29.08l-8 1.07a426.79 426.79 0 0 1 111.32 0l-8-1.07a419.18 419.18 0 0 1 106.68 29.09l-7.18-3A418.86 418.86 0 0 1 715 182.61q13.18 8.1 25.74 17.18c2.13 1.54 4.24 3.1 6.35 4.68a17.18 17.18 0 0 1 3.14 2.38c0.06 0.08-6.47-5-3-2.29 4.46 3.53 8.89 7.1 13.23 10.78a419.73 419.73 0 0 1 43.91 43.23q4.75 5.43 9.33 11 2.49 3.06 4.93 6.15c0.54 0.69 1.07 1.38 1.62 2.07-6.53-8.22-2.13-2.74-0.72-0.86q9.5 12.62 18 25.94a420 420 0 0 1 32.65 62l-3-7.19a420.19 420.19 0 0 1 29.08 106.63l-1.08-8a431.67 431.67 0 0 1 3.69 55.69c0 15.73 13.81 30.8 30.06 30.07S959 528.88 959 512c-0.15-91.25-28.25-182.5-81.31-256.94a455 455 0 0 0-214-163.58C576.7 59.58 478.74 56.63 389.72 82 304 106.34 225.3 157.14 168.61 226.05a464.55 464.55 0 0 0-71.29 119.38c-17.6 42.76-27.55 88.28-31.07 134.34-7 91.6 15.65 185.46 63.41 263.91C175.79 819.49 245 882 326 918.44a462 462 0 0 0 137.18 37.77c46.46 5.42 93.69 2.77 139.5-6.45 87.78-17.66 170-63.59 231.81-128.21 62.09-64.87 104.91-148.77 118.57-237.7A477.49 477.49 0 0 0 959 512c0-15.72-13.85-30.79-30.07-30.06s-30.04 13.23-30.06 30.06z" p-id="15688"></path></svg>