<?xml version="1.0" standalone="no"?><!DOCTYPE svg PUBLIC "-//W3C//DTD SVG 1.1//EN" "http://www.w3.org/Graphics/SVG/1.1/DTD/svg11.dtd"><svg t="1584323466231" class="icon" viewBox="0 0 1024 1024" version="1.1" xmlns="http://www.w3.org/2000/svg" p-id="1988" xmlns:xlink="http://www.w3.org/1999/xlink" width="200" height="200"><defs><style type="text/css"></style></defs><path d="M587 485.3l-97.8-97.8c-4.8-4.8-11.7-6.6-18.2-4.9-6.5 1.7-11.6 6.8-13.3 13.3-1.7 6.5 0.1 13.5 4.9 18.2l97.7 97.8-97.8 97.8c-4.8 4.8-6.6 11.7-4.9 18.2 1.7 6.5 6.8 11.6 13.3 13.3 6.5 1.7 13.5-0.1 18.2-4.9l97.8-97.7 97.8 97.8c4.8 4.8 11.7 6.6 18.2 4.9 6.5-1.7 11.6-6.8 13.3-13.3s-0.1-13.5-4.9-18.2L613.7 512l97.8-97.8c4.8-4.8 6.6-11.7 4.9-18.2-1.7-6.5-6.8-11.6-13.3-13.3s-13.5 0.1-18.2 4.9L587 485.3z" fill="#333333" p-id="1989"></path><path d="M344.4 257.6L145.2 514.9c-7 9-6.6 21.7 1 30.3L343 766.4h524.7c13.1 0 23.7-10.6 23.7-23.7V281.3c0-13.1-10.6-23.7-23.7-23.7H344.4zM327 222h540.7c32.7 0 59.3 26.5 59.3 59.3v461.4c0 32.7-26.5 59.3-59.3 59.3H327L119.7 568.8c-19-21.3-20-53.1-2.6-75.7L327 222z" fill="#333333" p-id="1990"></path></svg>