<svg t="1588254714427" class="icon" viewBox="0 0 1024 1024" version="1.1" xmlns="http://www.w3.org/2000/svg" p-id="15164" width="200" height="200"><path d="M896 480a32 32 0 0 0-32-32 352 352 0 0 0-700.8 0H160a32 32 0 0 0-32 32 384 384 0 0 0 231.04 352H352a32 32 0 0 0 0 64h320a32 32 0 0 0 0-64h-7.04A384 384 0 0 0 896 480zM512 192a288 288 0 0 1 286.08 256H225.92A288 288 0 0 1 512 192z m0 608a320 320 0 0 1-318.4-288H832c0 10.88-2.88 21.44-4.8 32H608a32 32 0 0 0 0 64h196.8A320 320 0 0 1 512 800z" p-id="15165"></path><path d="M416 320a32 32 0 0 0 0-64h-32a32 32 0 0 0 0 64zM640 256h-32a32 32 0 0 0 0 64h32a32 32 0 0 0 0-64zM320 352H288a32 32 0 0 0 0 64h32a32 32 0 0 0 0-64zM448 352h-32a32 32 0 0 0 0 64h32a32 32 0 0 0 0-64zM608 352h-32a32 32 0 0 0 0 64h32a32 32 0 0 0 0-64zM736 352h-32a32 32 0 0 0 0 64h32a32 32 0 0 0 0-64z" p-id="15166"></path></svg>