<svg t="1588254497638" class="icon" viewBox="0 0 1024 1024" version="1.1" xmlns="http://www.w3.org/2000/svg" p-id="13953" width="200" height="200"><path d="M864.328929 257.853719l-0.004093-0.004093L155.669944 257.849626c-51.076282 0-92.62763 41.500183-92.62763 92.510974l0 68.918649c0 43.080168 29.630854 79.374792 69.609381 89.621157-2.876514 8.494465-4.39203 17.447371-4.39203 26.530236L128.259664 874.541013c0 23.561625 10.172687 46.27186 27.904537 62.288648 16.239869 14.673188 37.416168 22.74912 59.624982 22.74912l590.464049 0c22.208814 0 43.38409-8.076956 59.627029-22.74605 17.733896-16.020882 27.907607-38.727023 27.907607-62.292742L893.787868 535.430642c0-9.262968-1.581008-18.390859-4.565992-27.03268 39.022759-10.891048 67.733661-46.712905 67.733661-89.113597l0-68.920696C956.955536 299.352879 915.404188 257.853719 864.328929 257.853719zM480.127593 897.821229 215.78509 897.821229c-14.240329 0-25.777083-10.42442-25.777083-23.284309L190.008007 535.426549c0-12.860912 11.542894-23.282263 25.777083-23.282263l264.342504 0L480.127593 897.821229zM480.127593 448.300212l0 0.004093L155.665851 448.304306c-16.095583 0-29.144784-12.993942-29.144784-29.030174l0-68.916603c0-16.031115 13.049201-29.02608 29.144784-29.02608l324.461743 0L480.127593 448.300212zM832.031339 874.532827l0 0.004093c0 12.859889-11.537777 23.284309-25.778106 23.284309L542.252513 897.821229 542.252513 512.143263l263.999696 0c14.234189 0 25.778106 10.425444 25.778106 23.282263L832.030315 874.532827zM893.468596 419.279249c0 16.031115-13.045107 29.025057-29.143761 29.025057L542.252513 448.304306 542.252513 321.335543l322.0713 0c16.098653 0 29.143761 12.993942 29.143761 29.025057L893.467573 419.279249z" p-id="13954"></path><path d="M292.06745 257.874185l93.998861-91.732238 86.60752 88.750323-3.055592 2.981914 83.005482 0 93.999884-91.732238 86.60752 88.750323-3.055592 2.981914 60.98598 0c0.797156-15.587-4.647857-31.449269-16.407692-43.499723l-86.609567-88.750323c-22.376637-22.931269-59.108213-23.3805-82.037435-1.001817l-91.942015 89.721441-86.577844-88.719624c-22.376637-22.931269-59.108213-23.3805-82.038458-1.001817l-96.074126 93.755314c-11.126408 10.858302-16.943904 25.095561-17.445324 39.496549L292.06745 257.874185z" p-id="13955"></path></svg>