<svg t="1588254668106" class="icon" viewBox="0 0 1024 1024" version="1.1" xmlns="http://www.w3.org/2000/svg" p-id="14793" width="200" height="200"><path d="M975.99488 0l-384 0c-26.39872 0-63.2832 15.27808-81.94048 33.93536l-476.11904 476.11904c-18.67776 18.67776-18.67776 49.21344 0 67.8912l412.11904 412.11904c18.67776 18.67776 49.21344 18.67776 67.8912 0l476.11904-476.11904c18.65728-18.65728 33.93536-55.54176 33.93536-81.94048l0-384c0-26.39872-21.6064-48.00512-48.00512-48.00512zM736.01024 384c-53.02272 0-96.01024-42.98752-96.01024-96.01024s42.98752-96.01024 96.01024-96.01024 96.01024 42.98752 96.01024 96.01024-42.98752 96.01024-96.01024 96.01024z" p-id="14794"></path></svg>