<svg t="1588254698632" class="icon" viewBox="0 0 1024 1024" version="1.1" xmlns="http://www.w3.org/2000/svg" p-id="15040" width="200" height="200"><path d="M592 736c-8 0-16-3.2-22.4-9.6l-192-192c-12.8-12.8-12.8-32 0-44.8l192-192c12.8-12.8 32-12.8 44.8 0 12.8 12.8 12.8 32 0 44.8L444.8 512l169.6 169.6c12.8 12.8 12.8 32 0 44.8-6.4 6.4-14.4 9.6-22.4 9.6z" p-id="15041"></path><path d="M512 960C265.6 960 64 758.4 64 512S265.6 64 512 64s448 201.6 448 448-201.6 448-448 448z m0-832C300.8 128 128 300.8 128 512s172.8 384 384 384 384-172.8 384-384S723.2 128 512 128z" p-id="15042"></path></svg>