<?xml version="1.0" standalone="no"?><!DOCTYPE svg PUBLIC "-//W3C//DTD SVG 1.1//EN" "http://www.w3.org/Graphics/SVG/1.1/DTD/svg11.dtd"><svg t="1584079016893" class="icon" viewBox="0 0 1024 1024" version="1.1" xmlns="http://www.w3.org/2000/svg" p-id="720" xmlns:xlink="http://www.w3.org/1999/xlink" width="200" height="200"><defs><style type="text/css"></style></defs><path d="M341.333 539.733L578.56 760.32a35.84 35.84 0 1 0 49.493-52.48L420.267 512 628.053 318.72a35.84 35.84 0 1 0-49.06599999-52.48l-237.65400001 221.013a35.84 35.84 0 0 0 0 52.48zM512 1024a512 512 0 1 0-512-512A512 512 0 0 0 512 1024z m0-72.107A439.467 439.467 0 0 1 341.333 107.52a439.467 439.467 0 0 1 482.134 715.947 438.613 438.613 0 0 1-311.04 128z" p-id="721"></path></svg>