<svg t="1588254620408" class="icon" viewBox="0 0 1024 1024" version="1.1" xmlns="http://www.w3.org/2000/svg" p-id="14546" width="200" height="200"><path d="M782.844 315.234l11.812-35.437c13.078-39.235-8.437-82.266-47.672-95.344L452.516 86.578c-18.985-6.328-39.657-4.64-57.375 4.219-18.141 8.86-31.22 24.469-37.547 43.453-0.422 1.688-4.219 14.344-5.063 19.406l-1.687-0.422c-19.406-4.64-39.656-1.687-56.953 8.86-16.875 10.125-29.532 27.422-34.172 46.406l-27.844 113.063c-34.172 17.718-55.688 52.312-55.688 91.125V802.5c0 56.11 45.563 102.094 102.094 102.094h474.61c56.109 0 102.093-45.985 102.093-102.094V412.687c0-44.296-29.53-84.375-72.14-97.453z m-475.032-93.656l0.422-0.844c1.688-6.75 5.907-12.234 11.813-15.609 5.906-3.375 12.656-4.64 19.406-2.953L640.672 276c6.75 1.688 12.234 5.906 15.61 11.813 3.374 5.484 4.64 12.656 2.952 19.406-0.422 1.265-0.422 2.531-0.843 4.219H286.297l21.515-89.86z m92.813-59.906l3.797-11.39c4.219-13.079 18.562-20.673 32.062-16.032l294.891 97.453c6.328 2.11 11.813 6.75 14.766 12.656 2.953 5.907 3.375 13.078 1.265 19.407l-15.61 46.828h-22.78c2.53-17.297-1.266-34.594-10.125-49.36-10.125-16.875-27-29.53-46.407-34.171L399.36 165.047c0.422-0.844 0.844-2.11 1.266-3.375zM805.203 802.5c0 28.688-23.203 52.313-51.89 52.313h-474.61c-28.687 0-51.89-23.625-52.312-52.313V412.687c0-28.687 23.203-52.312 52.312-52.312h474.61c28.687 0 51.89 23.625 52.312 52.313V802.5z" fill="#2C2C2C" p-id="14547"></path><path d="M600.172 515.203l0.844-0.844c10.968-10.968 22.359-21.937 32.906-33.328 5.062-4.64 7.172-12.234 5.062-19.406-2.109-8.016-8.437-14.344-15.609-16.031-8.438-2.953-16.875 0-27 10.547-10.969 10.546-21.516 21.515-32.484 32.484l-1.688 1.688-30.375 30.375-2.531 2.53-68.344-68.765c-6.328-6.75-17.297-13.078-26.578-8.437h-0.422c-7.172 2.53-12.234 9.28-14.344 17.296-1.687 7.594 0 14.344 5.063 18.985 13.922 14.344 28.265 28.687 40.922 41.344 8.86 8.859 18.984 18.562 28.687 28.687l2.531 2.531-12.234 12.235h-1.265c-6.329 0.422-13.079 0-19.407 0-10.969-0.422-21.515-0.844-32.062 1.687-9.281 3.375-12.656 13.078-12.656 20.25 0 7.594 3.375 16.875 13.5 20.672 13.5 3.375 28.265 2.953 43.453 2.531 8.437-0.422 17.296-0.422 26.156 0h3.375v41.344h-29.953c-11.39 0-24.89-0.422-37.125 0.422-10.969 0.844-20.25 11.813-19.406 22.781 0 5.485 2.53 10.969 6.75 15.188 4.64 4.218 10.968 6.75 16.453 6.328 10.968 0.422 21.093 0 32.906 0h30.375v29.531c0 11.813 0 24.047 0.422 35.86 0.422 10.546 9.703 20.25 20.25 21.093h2.11c5.062 0 9.702-1.687 13.921-5.484 5.063-4.219 8.016-10.125 8.016-15.61 0.422-11.812 0.422-24.046 0.422-35.859v-29.531h62.859c6.75 0.422 13.078-2.531 17.719-7.594 4.64-5.062 6.328-10.969 5.484-16.875-0.844-11.39-11.813-20.672-23.203-19.828H550.39v-41.344h3.375c8.437-0.422 17.297 0 25.734 0 13.5 0.422 27.422 0.422 41.344-1.265 10.125-2.11 14.765-11.391 16.031-18.985 0.844-7.593-1.266-16.875-10.547-21.515-10.125-4.22-21.094-3.797-33.328-2.953-6.75 0.421-13.5 0.843-19.828 0h-1.688l-10.125-13.079 2.11-2.109c12.234-13.078 24.468-25.734 36.703-37.547z" fill="#2C2C2C" p-id="14548"></path></svg>