<svg t="1588254738752" class="icon" viewBox="0 0 1024 1024" version="1.1" xmlns="http://www.w3.org/2000/svg" p-id="15533" width="200" height="200"><path d="M432 288c8 0 16 3.2 22.4 9.6l192 192c12.8 12.8 12.8 32 0 44.8l-192 192c-12.8 12.8-32 12.8-44.8 0-12.8-12.8-12.8-32 0-44.8L579.20000001 512l-169.60000001-169.6c-12.8-12.8-12.8-32 0-44.8 6.4-6.4 14.4-9.6 22.4-9.6z" p-id="15534" fill="#2c2c2c"></path><path d="M512 64C758.4 64 960 265.6 960 512S758.4 960 512 960s-448-201.6-448-448 201.6-448 448-448z m0 832.00000001C723.2 896 896 723.2 896.00000001 512s-172.79999999-384-384.00000001-384.00000001-384 172.79999999-384.00000001 384.00000001S300.8 896 512 896.00000001z" p-id="15535" fill="#2c2c2c"></path></svg>