<?xml version="1.0" standalone="no"?><!DOCTYPE svg PUBLIC "-//W3C//DTD SVG 1.1//EN" "http://www.w3.org/Graphics/SVG/1.1/DTD/svg11.dtd"><svg t="1584325021854" class="icon" viewBox="0 0 1024 1024" version="1.1" xmlns="http://www.w3.org/2000/svg" p-id="1935" xmlns:xlink="http://www.w3.org/1999/xlink" width="200" height="200"><defs><style type="text/css"></style></defs><path d="M250.772938 1023.948754H26.878633A26.699229 26.699229 0 0 1 0.845603 997.915724v-390.495446a26.699229 26.699229 0 0 1 26.03303-26.033029h223.894305a26.699229 26.699229 0 0 1 26.03303 26.033029v390.495446a26.699229 26.699229 0 0 1-26.03303 26.03303z m371.380643-5.124612h-230.607547a26.699229 26.699229 0 0 1-26.03303-26.03303V26.03303A26.699229 26.699229 0 0 1 391.546034 0h230.607547a26.699229 26.699229 0 0 1 26.033029 26.03303v966.706836a26.699229 26.699229 0 0 1-26.033029 26.03303z m373.12301 0h-218.6672a26.699229 26.699229 0 0 1-26.03303-26.03303V364.462416a26.699229 26.699229 0 0 1 26.03303-26.03303h220.358322a26.699229 26.699229 0 0 1 26.03303 26.03303v628.27745a29.671504 29.671504 0 0 1-27.672906 26.03303z" p-id="1936"></path></svg>